<mxfile host="app.diagrams.net" modified="2024-07-02T20:07:33.393Z" agent="Mozilla/5.0 (Windows NT 10.0; Win64; x64) AppleWebKit/537.36 (KHTML, like Gecko) Chrome/126.0.0.0 Safari/537.36" version="24.6.4" etag="f4QbA14Zp3tldChDqIR0" type="github">
  <diagram name="PÃ¡gina-1" id="4NOjJVqmoQB5Fy3EiZ6L">
    <mxGraphModel>
      <root>
        <mxCell id="0" />
        <mxCell id="1" parent="0" />
      </root>
    </mxGraphModel>
  </diagram>
</mxfile>
